<svg width="40" height="40" viewBox="0 0 40 40" fill="none" xmlns="http://www.w3.org/2000/svg">
<path d="M19.5508 17.0245H11.7225V22.1407H14.0136C14.0927 21.6558 14.496 21.2866 14.9839 21.2866C15.528 21.2866 15.9696 21.7458 15.9696 22.3124C15.9696 22.8791 15.528 23.3383 14.9839 23.3383C14.4969 23.3383 14.0936 22.9709 14.0136 22.4879H11.4018V22.1407H11.4036V17.0245H8.67908C8.62185 17.5342 8.20577 17.9309 7.70066 17.9309C7.15648 17.9309 6.71497 17.4717 6.71497 16.9051C6.71497 16.3385 7.15648 15.8793 7.70066 15.8793C8.19214 15.8793 8.59914 16.2549 8.67272 16.7453H14.8658V7.69388C14.4034 7.60939 14.0518 7.19061 14.0518 6.68459C14.0518 6.11796 14.4933 5.65878 15.0375 5.65878C15.5816 5.65878 16.0232 6.11796 16.0232 6.68459C16.0232 7.19888 15.6589 7.62316 15.1846 7.69755V16.7444H19.5508V6.77826C19.5544 6.69929 19.5571 6.62031 19.5571 6.54041C19.5571 4.03327 17.5694 2 15.1165 2C12.6636 2 10.6759 4.03235 10.6759 6.54041C10.6759 6.58173 10.6777 6.62306 10.6786 6.66439C10.5605 6.65061 10.4406 6.64327 10.318 6.64327C8.5419 6.64327 7.10288 8.11541 7.10288 9.93102C7.10288 10.2451 7.14649 10.5482 7.22735 10.8356C4.27209 11.2682 2 13.8662 2 17.008C2 19.5573 3.49625 21.7477 5.63843 22.7147C5.1206 23.3557 4.80899 24.1777 4.80899 25.074C4.80899 27.1201 6.43152 28.7796 8.43289 28.7796C9.6784 28.7796 10.7777 28.1367 11.4299 27.1578C12.2893 27.8915 13.3959 28.3333 14.6032 28.3333C17.3395 28.3333 19.558 26.0649 19.558 23.2666C19.558 23.1757 19.5553 23.0857 19.5508 22.9957V17.0254V17.0245Z" fill="#01A82D"/>
<path d="M20.4492 17.0245H28.2775V22.1407H25.9864C25.9073 21.6558 25.504 21.2866 25.0161 21.2866C24.472 21.2866 24.0304 21.7458 24.0304 22.3124C24.0304 22.8791 24.472 23.3383 25.0161 23.3383C25.5031 23.3383 25.9064 22.9709 25.9864 22.4879H28.5982V22.1407H28.5964V17.0245H31.3209C31.3782 17.5342 31.7942 17.9309 32.2993 17.9309C32.8435 17.9309 33.285 17.4717 33.285 16.9051C33.285 16.3385 32.8435 15.8793 32.2993 15.8793C31.8079 15.8793 31.4009 16.2549 31.3273 16.7453H25.1342V7.69388C25.5966 7.60939 25.9482 7.19061 25.9482 6.68459C25.9482 6.11796 25.5067 5.65878 24.9625 5.65878C24.4184 5.65878 23.9768 6.11796 23.9768 6.68459C23.9768 7.19888 24.3411 7.62316 24.8154 7.69755V16.7444H20.4492V6.77826C20.4456 6.69929 20.4429 6.62031 20.4429 6.54041C20.4429 4.03327 22.4306 2 24.8835 2C27.3364 2 29.3241 4.03235 29.3241 6.54041C29.3241 6.58173 29.3223 6.62306 29.3214 6.66439C29.4395 6.65061 29.5594 6.64327 29.682 6.64327C31.4581 6.64327 32.8971 8.11541 32.8971 9.93102C32.8971 10.2451 32.8535 10.5482 32.7727 10.8356C35.7279 11.2682 38 13.8662 38 17.008C38 19.5573 36.5037 21.7477 34.3616 22.7147C34.8794 23.3557 35.191 24.1777 35.191 25.074C35.191 27.1201 33.5685 28.7796 31.5671 28.7796C30.3216 28.7796 29.2223 28.1367 28.5701 27.1578C27.7107 27.8915 26.6041 28.3333 25.3968 28.3333C22.6605 28.3333 20.442 26.0649 20.442 23.2666C20.442 23.1757 20.4447 23.0857 20.4492 22.9957V17.0254V17.0245Z" fill="#01A82D"/>
<path d="M16.6265 23.0306H19.5336V38H16.6265C18.652 33.0343 18.084 29.5099 16.6265 23.0306Z" fill="#01A82D"/>
<path d="M23.3735 23.0306H20.4664V38H23.3735C21.348 33.0343 21.916 29.5099 23.3735 23.0306Z" fill="#01A82D"/>
</svg>
